<svg width="320" height="93" viewBox="0 0 320 93" fill="none" xmlns="http://www.w3.org/2000/svg">
<path d="M318.222 81.998C318.222 86.9245 314.148 90.915 309.109 90.915H10.9017C5.86534 90.915 1.77734 86.9245 1.77734 81.998V10.8877C1.77734 5.9635 5.86534 1.95898 10.9017 1.95898H309.107C314.148 1.95898 318.219 5.9635 318.219 10.8877L318.222 81.998Z" fill="black"/>
<path d="M308.148 2.06643C313.636 2.06643 318.101 6.41999 318.101 11.7702V81.1036C318.101 86.4538 313.636 90.8074 308.148 90.8074H11.8519C6.36444 90.8074 1.89926 86.4538 1.89926 81.1036V11.7702C1.89926 6.41999 6.36444 2.06643 11.8519 2.06643H308.148ZM308.148 0.214653H11.8519C5.3363 0.214653 0 5.41755 0 11.7702V81.1036C0 87.4563 5.3363 92.6592 11.8519 92.6592H308.148C314.664 92.6592 320 87.4563 320 81.1036V11.7702C320 5.41755 314.664 0.214653 308.148 0.214653Z" fill="#A6A6A6"/>
<path d="M71.4152 45.9379C71.3465 38.4892 77.6706 34.8653 77.9598 34.6966C74.3782 29.6052 68.8268 28.9096 66.876 28.8541C62.2135 28.3757 57.6908 31.5743 55.3157 31.5743C52.8932 31.5743 49.2357 28.9004 45.2938 28.9789C40.2212 29.0552 35.4757 31.9187 32.873 36.3652C27.5018 45.4317 31.5077 58.7553 36.6538 66.0838C39.228 69.673 42.236 73.6805 46.1732 73.5395C50.025 73.3847 51.4638 71.1452 56.1121 71.1452C60.7178 71.1452 62.0689 73.5395 66.0843 73.4494C70.2182 73.3847 72.8209 69.844 75.305 66.2225C78.2798 62.1087 79.4745 58.0574 79.5219 57.8494C79.4247 57.817 71.4935 54.8657 71.4152 45.9379Z" fill="white"/>
<path d="M63.83 24.0331C65.9018 21.5071 67.3192 18.0705 66.9257 14.583C63.9272 14.7124 60.1773 16.6052 58.0179 19.0758C56.1074 21.2529 54.4007 24.8212 54.8416 28.177C58.2099 28.422 61.6683 26.5199 63.83 24.0331Z" fill="white"/>
<path d="M116.266 23.3462C116.266 26.0664 115.429 28.114 113.758 29.4891C112.21 30.7579 110.01 31.3935 107.161 31.3935C105.748 31.3935 104.539 31.3334 103.527 31.2132V16.3504C104.848 16.1424 106.27 16.0361 107.806 16.0361C110.52 16.0361 112.566 16.6116 113.945 17.7625C115.491 19.0637 116.266 20.9241 116.266 23.3462ZM113.646 23.4132C113.646 21.6498 113.168 20.2978 112.21 19.3549C111.252 18.4143 109.854 17.9428 108.012 17.9428C107.23 17.9428 106.564 17.9936 106.011 18.1V29.399C106.317 29.4452 106.877 29.466 107.69 29.466C109.591 29.466 111.058 28.9506 112.092 27.9199C113.125 26.8891 113.646 25.3869 113.646 23.4132Z" fill="white"/>
<path d="M130.153 25.7226C130.153 27.3981 129.662 28.7709 128.681 29.8479C127.652 30.9549 126.289 31.5073 124.587 31.5073C122.947 31.5073 121.641 30.9781 120.667 29.9149C119.695 28.8541 119.209 27.516 119.209 25.9028C119.209 24.2157 119.709 22.8314 120.714 21.7567C121.719 20.682 123.07 20.1436 124.772 20.1436C126.413 20.1436 127.73 20.6728 128.728 21.7336C129.677 22.7644 130.153 24.0956 130.153 25.7226ZM127.576 25.8012C127.576 24.7958 127.354 23.9338 126.91 23.215C126.389 22.346 125.647 21.9116 124.682 21.9116C123.684 21.9116 122.926 22.346 122.404 23.215C121.959 23.9338 121.738 24.8097 121.738 25.8451C121.738 26.8504 121.961 27.7124 122.404 28.4312C122.942 29.3002 123.691 29.7347 124.658 29.7347C125.607 29.7347 126.351 29.2933 126.887 28.4081C127.346 27.6755 127.576 26.8065 127.576 25.8012Z" fill="white"/>
<path d="M148.776 20.3652L145.279 31.2598H143.004L141.555 26.529C141.188 25.348 140.889 24.1739 140.657 23.0091H140.612C140.396 24.2063 140.098 25.378 139.714 26.529L138.175 31.2598H135.874L132.586 20.3652H135.139L136.402 25.5444C136.708 26.7693 136.959 27.9364 137.161 29.0412H137.206C137.391 28.1306 137.696 26.9704 138.128 25.5676L139.714 20.3675H141.738L143.257 25.4566C143.625 26.6977 143.923 27.8925 144.153 29.0435H144.222C144.39 27.9226 144.644 26.7277 144.981 25.4566L146.336 20.3675H148.776V20.3652Z" fill="white"/>
<path d="M161.654 31.2601H159.17V25.0201C159.17 23.0973 158.421 22.1358 156.918 22.1358C156.181 22.1358 155.586 22.3993 155.123 22.9285C154.666 23.4578 154.434 24.0818 154.434 24.7959V31.2578H151.949V23.4786C151.949 22.5218 151.919 21.4841 151.859 20.3609H154.042L154.159 22.0642H154.227C154.517 21.5349 154.948 21.0981 155.514 20.7492C156.188 20.3424 156.941 20.1367 157.766 20.1367C158.809 20.1367 159.677 20.4649 160.367 21.1236C161.225 21.9301 161.654 23.1342 161.654 24.7335V31.2601V31.2601Z" fill="white"/>
<path d="M168.503 31.2597H166.021V15.3662H168.503V31.2597Z" fill="white"/>
<path d="M183.13 25.7226C183.13 27.3981 182.639 28.7709 181.658 29.8479C180.629 30.9549 179.263 31.5073 177.564 31.5073C175.921 31.5073 174.615 30.9781 173.643 29.9149C172.671 28.8541 172.186 27.516 172.186 25.9028C172.186 24.2157 172.686 22.8314 173.691 21.7567C174.696 20.682 176.047 20.1436 177.746 20.1436C179.389 20.1436 180.705 20.6728 181.705 21.7336C182.653 22.7644 183.13 24.0956 183.13 25.7226ZM180.551 25.8012C180.551 24.7958 180.328 23.9338 179.885 23.215C179.365 22.346 178.621 21.9116 177.659 21.9116C176.658 21.9116 175.9 22.346 175.381 23.215C174.935 23.9338 174.715 24.8097 174.715 25.8451C174.715 26.8504 174.938 27.7124 175.381 28.4312C175.919 29.3002 176.668 29.7347 177.635 29.7347C178.583 29.7347 179.325 29.2933 179.861 28.4081C180.323 27.6755 180.551 26.8065 180.551 25.8012Z" fill="white"/>
<path d="M195.152 31.26H192.921L192.736 30.0051H192.668C191.904 31.0058 190.816 31.5073 189.404 31.5073C188.349 31.5073 187.496 31.1768 186.853 30.5205C186.27 29.9242 185.979 29.1823 185.979 28.3018C185.979 26.9706 186.547 25.956 187.692 25.2534C188.835 24.5508 190.442 24.2065 192.511 24.2227V24.0193C192.511 22.5841 191.739 21.8676 190.191 21.8676C189.088 21.8676 188.117 22.138 187.277 22.6742L186.773 21.0842C187.811 20.4579 189.093 20.1436 190.605 20.1436C193.526 20.1436 194.991 21.6458 194.991 24.6502V28.6623C194.991 29.7509 195.045 30.6175 195.152 31.26ZM192.573 27.516V25.8358C189.833 25.7896 188.463 26.5222 188.463 28.0314C188.463 28.5999 188.619 29.0252 188.939 29.3094C189.259 29.5937 189.667 29.7347 190.153 29.7347C190.698 29.7347 191.208 29.566 191.672 29.2309C192.139 28.8934 192.426 28.4659 192.533 27.9412C192.559 27.8234 192.573 27.6801 192.573 27.516Z" fill="white"/>
<path d="M209.266 31.2597H207.062L206.946 29.5102H206.877C206.173 30.8414 204.974 31.507 203.288 31.507C201.942 31.507 200.821 30.9916 199.932 29.9609C199.043 28.9301 198.6 27.592 198.6 25.9488C198.6 24.1854 199.081 22.7571 200.048 21.6663C200.984 20.6494 202.131 20.141 203.497 20.141C204.997 20.141 206.047 20.6332 206.645 21.6201H206.692V15.3662H209.179V28.3246C209.179 29.3854 209.207 30.363 209.266 31.2597ZM206.692 26.6652V24.8487C206.692 24.5344 206.668 24.2802 206.623 24.086C206.483 23.5036 206.182 23.0137 205.725 22.6185C205.263 22.2233 204.706 22.0245 204.063 22.0245C203.136 22.0245 202.411 22.3828 201.878 23.1015C201.349 23.8203 201.081 24.7378 201.081 25.8587C201.081 26.9356 201.335 27.8092 201.845 28.4818C202.383 29.1982 203.108 29.5564 204.016 29.5564C204.831 29.5564 205.483 29.2583 205.979 28.6597C206.457 28.1074 206.692 27.4418 206.692 26.6652Z" fill="white"/>
<path d="M230.512 25.7226C230.512 27.3981 230.022 28.7709 229.04 29.8479C228.012 30.9549 226.651 31.5073 224.947 31.5073C223.309 31.5073 222.003 30.9781 221.026 29.9149C220.054 28.8541 219.568 27.516 219.568 25.9028C219.568 24.2157 220.069 22.8314 221.074 21.7567C222.079 20.682 223.43 20.1436 225.134 20.1436C226.772 20.1436 228.092 20.6728 229.088 21.7336C230.036 22.7644 230.512 24.0956 230.512 25.7226ZM227.938 25.8012C227.938 24.7958 227.715 23.9338 227.272 23.215C226.748 22.346 226.009 21.9116 225.042 21.9116C224.046 21.9116 223.287 22.346 222.764 23.215C222.318 23.9338 222.098 24.8097 222.098 25.8451C222.098 26.8504 222.32 27.7124 222.764 28.4312C223.302 29.3002 224.051 29.7347 225.018 29.7347C225.966 29.7347 226.713 29.2933 227.248 28.4081C227.706 27.6755 227.938 26.8065 227.938 25.8012Z" fill="white"/>
<path d="M243.87 31.2601H241.388V25.0201C241.388 23.0973 240.639 22.1358 239.134 22.1358C238.397 22.1358 237.802 22.3993 237.342 22.9285C236.882 23.4578 236.652 24.0818 236.652 24.7959V31.2578H234.166V23.4786C234.166 22.5218 234.137 21.4841 234.078 20.3609H236.259L236.375 22.0642H236.444C236.735 21.5349 237.167 21.0981 237.731 20.7492C238.406 20.3424 239.158 20.1367 239.985 20.1367C241.026 20.1367 241.893 20.4649 242.583 21.1236C243.443 21.9301 243.87 23.1342 243.87 24.7335V31.2601V31.2601Z" fill="white"/>
<path d="M260.589 22.1798H257.853V27.4723C257.853 28.8173 258.339 29.4899 259.301 29.4899C259.747 29.4899 260.117 29.4529 260.408 29.3766L260.472 31.214C259.982 31.3942 259.337 31.4844 258.543 31.4844C257.562 31.4844 256.798 31.1932 256.246 30.6108C255.691 30.0284 255.416 29.0484 255.416 27.6733V22.1798H253.783V20.3656H255.416V18.3688L257.851 17.6523V20.3633H260.586V22.1798H260.589Z" fill="white"/>
<path d="M273.74 31.2597H271.253V25.066C271.253 23.1131 270.504 22.1355 269.003 22.1355C267.851 22.1355 267.065 22.7017 266.633 23.8341C266.56 24.0722 266.517 24.3634 266.517 24.7054V31.2574H264.035V15.3662H266.517V21.9321H266.564C267.347 20.7372 268.468 20.141 269.921 20.141C270.95 20.141 271.801 20.4691 272.476 21.1278C273.318 21.9483 273.74 23.1685 273.74 24.7817V31.2597V31.2597Z" fill="white"/>
<path d="M287.305 25.2967C287.305 25.7311 287.272 26.0963 287.213 26.3944H279.763C279.796 27.4714 280.152 28.2919 280.841 28.8604C281.472 29.3688 282.285 29.6231 283.28 29.6231C284.383 29.6231 285.388 29.452 286.293 29.1077L286.682 30.7902C285.622 31.2385 284.376 31.4627 282.932 31.4627C281.202 31.4627 279.839 30.9658 278.853 29.972C277.862 28.9783 277.371 27.6447 277.371 25.9715C277.371 24.3283 277.829 22.9601 278.751 21.8693C279.713 20.7045 281.014 20.1221 282.657 20.1221C284.264 20.1221 285.485 20.7045 286.31 21.8693C286.976 22.7937 287.305 23.9377 287.305 25.2967ZM284.935 24.6703C284.954 23.9516 284.79 23.3322 284.454 22.8099C284.022 22.1374 283.366 21.7999 282.477 21.7999C281.666 21.7999 281.005 22.1281 280.5 22.7868C280.088 23.3114 279.843 23.9377 279.763 24.6703H284.935Z" fill="white"/>
<path d="M127.158 73.0239H121.775L118.827 63.9897H108.577L105.768 73.0239H100.527L110.682 42.2676H116.954L127.158 73.0239ZM117.938 60.1995L115.271 52.1684C114.989 51.3479 114.46 49.4159 113.681 46.3744H113.586C113.275 47.6825 112.775 49.6146 112.088 52.1684L109.468 60.1995H117.938V60.1995Z" fill="white"/>
<path d="M153.274 61.6629C153.274 65.4346 152.228 68.416 150.138 70.6046C148.265 72.5529 145.94 73.5258 143.164 73.5258C140.168 73.5258 138.016 72.4766 136.705 70.3781H136.61V82.0608H131.556V58.1477C131.556 55.7765 131.492 53.3429 131.369 50.8469H135.814L136.096 54.3621H136.19C137.876 51.7136 140.433 50.3916 143.866 50.3916C146.549 50.3916 148.789 51.4247 150.581 53.4931C152.378 55.5639 153.274 58.2864 153.274 61.6629ZM148.125 61.8432C148.125 59.6846 147.628 57.905 146.627 56.5045C145.534 55.0439 144.067 54.3136 142.228 54.3136C140.981 54.3136 139.848 54.7203 138.836 55.5223C137.821 56.3312 137.158 57.3873 136.847 58.6954C136.691 59.3056 136.612 59.8048 136.612 60.1977V63.8954C136.612 65.5086 137.12 66.8698 138.134 67.9815C139.149 69.0931 140.467 69.6478 142.088 69.6478C143.991 69.6478 145.473 68.9313 146.532 67.5031C147.594 66.0725 148.125 64.1866 148.125 61.8432Z" fill="white"/>
<path d="M179.435 61.6629C179.435 65.4346 178.39 68.416 176.297 70.6046C174.427 72.5529 172.101 73.5258 169.326 73.5258C166.33 73.5258 164.177 72.4766 162.869 70.3781H162.774V82.0608H157.72V58.1477C157.72 55.7765 157.656 53.3429 157.533 50.8469H161.978L162.26 54.3621H162.355C164.037 51.7136 166.595 50.3916 170.03 50.3916C172.711 50.3916 174.951 51.4247 176.747 53.4931C178.537 55.5639 179.435 58.2864 179.435 61.6629ZM174.287 61.8432C174.287 59.6846 173.787 57.905 172.787 56.5045C171.694 55.0439 170.231 54.3136 168.39 54.3136C167.14 54.3136 166.01 54.7203 164.995 55.5223C163.981 56.3312 163.319 57.3873 163.009 58.6954C162.855 59.3056 162.774 59.8048 162.774 60.1977V63.8954C162.774 65.5086 163.281 66.8698 164.291 67.9815C165.306 69.0908 166.624 69.6478 168.25 69.6478C170.153 69.6478 171.635 68.9313 172.694 67.5031C173.756 66.0725 174.287 64.1866 174.287 61.8432Z" fill="white"/>
<path d="M208.685 64.3993C208.685 67.0155 207.753 69.144 205.883 70.7872C203.828 72.5829 200.967 73.4796 197.291 73.4796C193.896 73.4796 191.175 72.8418 189.115 71.5637L190.286 67.4569C192.505 68.765 194.939 69.4213 197.592 69.4213C199.495 69.4213 200.977 69.0007 202.041 68.1641C203.1 67.3275 203.629 66.2043 203.629 64.8037C203.629 63.5557 203.193 62.5042 202.318 61.6514C201.448 60.7986 199.995 60.0059 197.966 59.2732C192.443 57.2649 189.684 54.3228 189.684 50.454C189.684 47.9257 190.651 45.8526 192.588 44.2394C194.517 42.624 197.092 41.8174 200.31 41.8174C203.181 41.8174 205.566 42.305 207.469 43.278L206.206 47.2947C204.428 46.3518 202.418 45.8803 200.168 45.8803C198.39 45.8803 197.001 46.3079 196.006 47.1584C195.164 47.9187 194.742 48.8455 194.742 49.9433C194.742 51.1589 195.224 52.1642 196.191 52.9546C197.032 53.685 198.561 54.4754 200.78 55.3282C203.494 56.3936 205.487 57.6393 206.77 59.0675C208.047 60.4912 208.685 62.273 208.685 64.3993Z" fill="white"/>
<path d="M225.393 54.5449H219.823V65.3124C219.823 68.0511 220.804 69.4193 222.772 69.4193C223.675 69.4193 224.424 69.343 225.017 69.1905L225.156 72.9322C224.161 73.295 222.85 73.4776 221.226 73.4776C219.23 73.4776 217.671 72.8836 216.545 71.698C215.424 70.5101 214.86 68.5179 214.86 65.7192V54.5403H211.541V50.8425H214.86V46.7819L219.823 45.3213V50.8425H225.393V54.5449Z" fill="white"/>
<path d="M250.527 61.7527C250.527 65.1616 249.527 67.9603 247.531 70.1489C245.438 72.4023 242.66 73.5255 239.197 73.5255C235.859 73.5255 233.202 72.4462 231.22 70.2876C229.239 68.129 228.248 65.4042 228.248 62.1201C228.248 58.6835 229.267 55.8686 231.313 53.68C233.354 51.489 236.108 50.3936 239.571 50.3936C242.909 50.3936 245.594 51.4728 247.621 53.6337C249.56 55.7299 250.527 58.4362 250.527 61.7527ZM245.284 61.9121C245.284 59.8668 244.836 58.1127 243.928 56.6497C242.868 54.8794 241.354 53.9966 239.391 53.9966C237.36 53.9966 235.817 54.8817 234.757 56.6497C233.849 58.115 233.401 59.8969 233.401 62.0046C233.401 64.0499 233.849 65.8041 234.757 67.2647C235.85 69.035 237.376 69.9178 239.346 69.9178C241.276 69.9178 242.79 69.0165 243.883 67.2185C244.815 65.7278 245.284 63.9552 245.284 61.9121Z" fill="white"/>
<path d="M266.953 55.1802C266.453 55.0901 265.919 55.0439 265.36 55.0439C263.582 55.0439 262.207 55.6979 261.24 57.0083C260.399 58.1639 259.977 59.6245 259.977 61.3879V73.0243H254.925L254.973 57.8311C254.973 55.275 254.909 52.9477 254.783 50.8492H259.185L259.37 55.0924H259.51C260.043 53.6341 260.885 52.46 262.037 51.5795C263.162 50.7868 264.378 50.3916 265.689 50.3916C266.156 50.3916 266.578 50.424 266.953 50.4817V55.1802Z" fill="white"/>
<path d="M289.554 60.886C289.554 61.7688 289.495 62.513 289.369 63.1208H274.209C274.268 65.3118 275 66.9873 276.408 68.1429C277.686 69.1759 279.338 69.6936 281.367 69.6936C283.612 69.6936 285.66 69.3446 287.502 68.6444L288.293 72.0648C286.141 72.98 283.6 73.4353 280.668 73.4353C277.141 73.4353 274.372 72.423 272.357 70.4008C270.347 68.3786 269.34 65.663 269.34 62.2565C269.34 58.9123 270.276 56.1274 272.151 53.9064C274.114 51.5352 276.766 50.3496 280.104 50.3496C283.382 50.3496 285.864 51.5352 287.549 53.9064C288.884 55.79 289.554 58.1196 289.554 60.886ZM284.735 59.6079C284.769 58.1473 284.439 56.8854 283.754 55.82C282.879 54.4495 281.535 53.7654 279.727 53.7654C278.075 53.7654 276.731 54.4333 275.704 55.7738C274.863 56.8392 274.363 58.1173 274.209 59.6056H284.735V59.6079Z" fill="white"/>
</svg>
