<svg width="320" height="94" viewBox="0 0 320 94" fill="none" xmlns="http://www.w3.org/2000/svg">
<path d="M308.148 93.1035H11.8519C5.3363 93.1035 0 87.9006 0 81.548V12.2146C0 5.86192 5.3363 0.659029 11.8519 0.659029H308.148C314.664 0.659029 320 5.86192 320 12.2146V81.548C320 87.9006 314.664 93.1035 308.148 93.1035Z" fill="black"/>
<path d="M308.148 2.5108C313.636 2.5108 318.101 6.86437 318.101 12.2146V81.548C318.101 86.8982 313.636 91.2517 308.148 91.2517H11.8519C6.36444 91.2517 1.89926 86.8982 1.89926 81.548V12.2146C1.89926 6.86437 6.36444 2.5108 11.8519 2.5108H308.148ZM308.148 0.659029H11.8519C5.3363 0.659029 0 5.86192 0 12.2146V81.548C0 87.9006 5.3363 93.1035 11.8519 93.1035H308.148C314.664 93.1035 320 87.9006 320 81.548V12.2146C320 5.86192 314.664 0.659029 308.148 0.659029Z" fill="#A6A6A6"/>
<path d="M24.734 18.0824C24.0377 18.793 23.6348 19.8995 23.6348 21.3324V72.4426C23.6348 73.8755 24.0377 74.982 24.734 75.6926L24.9059 75.8486L54.2807 47.2197V46.5437L24.9059 17.9148L24.734 18.0824Z" fill="url(#paint0_linear_56688_210766)"/>
<path d="M64.062 56.7676L54.2812 47.2198V46.5438L64.0738 36.996L64.2931 37.1202L75.8901 43.5538C79.1998 45.3796 79.1998 48.384 75.8901 50.2214L64.2931 56.6434L64.062 56.7676V56.7676Z" fill="url(#paint1_linear_56688_210766)"/>
<path d="M64.2929 56.6431L54.281 46.8816L24.7344 75.6924C25.8336 76.8191 27.6262 76.9549 29.6647 75.8282L64.2929 56.6431" fill="url(#paint2_linear_56688_210766)"/>
<path d="M64.2929 37.1203L29.6647 17.9352C27.6262 16.8201 25.8336 16.9558 24.7344 18.0825L54.281 46.8818L64.2929 37.1203Z" fill="url(#paint3_linear_56688_210766)"/>
<path d="M112.398 24.3341C112.398 26.2638 111.805 27.8094 110.638 28.9621C109.296 30.3285 107.547 31.0161 105.405 31.0161C103.358 31.0161 101.61 30.3169 100.176 28.9389C98.7385 27.5407 98.0215 25.8247 98.0215 23.7707C98.0215 21.7167 98.7385 20.0007 100.176 18.6141C101.61 17.2245 103.358 16.5254 105.405 16.5254C106.424 16.5254 107.396 16.7305 108.324 17.1118C109.248 17.4961 110.001 18.0161 110.546 18.6574L109.307 19.8765C108.356 18.7816 107.061 18.2414 105.405 18.2414C103.912 18.2414 102.617 18.7498 101.518 19.7754C100.43 20.8038 99.8852 22.1356 99.8852 23.7707C99.8852 25.4058 100.43 26.7492 101.518 27.7776C102.617 28.7916 103.912 29.3116 105.405 29.3116C106.99 29.3116 108.324 28.7916 109.376 27.7661C110.069 27.0872 110.463 26.1512 110.567 24.9552H105.405V23.2854H112.291C112.374 23.6465 112.398 23.9961 112.398 24.3341V24.3341Z" fill="white" stroke="white" stroke-width="0.16" stroke-miterlimit="10"/>
<path d="M123.323 18.5443H116.855V22.9354H122.686V24.6052H116.855V28.9963H123.323V30.6979H115.023V16.8428H123.323V18.5443Z" fill="white" stroke="white" stroke-width="0.16" stroke-miterlimit="10"/>
<path d="M131.031 30.6979H129.2V18.5443H125.232V16.8428H135.001V18.5443H131.031V30.6979V30.6979Z" fill="white" stroke="white" stroke-width="0.16" stroke-miterlimit="10"/>
<path d="M142.072 30.6979V16.8428H143.9V30.6979H142.072Z" fill="white" stroke="white" stroke-width="0.16" stroke-miterlimit="10"/>
<path d="M152.004 30.6979H150.187V18.5443H146.205V16.8428H155.986V18.5443H152.004V30.6979Z" fill="white" stroke="white" stroke-width="0.16" stroke-miterlimit="10"/>
<path d="M174.481 28.9158C173.08 30.3169 171.344 31.0161 169.273 31.0161C167.19 31.0161 165.453 30.3169 164.052 28.9158C162.653 27.5176 161.957 25.8016 161.957 23.7707C161.957 21.7398 162.653 20.0238 164.052 18.6256C165.453 17.2245 167.19 16.5254 169.273 16.5254C171.332 16.5254 173.068 17.2245 174.47 18.6372C175.88 20.0469 176.576 21.7514 176.576 23.7707C176.576 25.8016 175.88 27.5176 174.481 28.9158ZM165.406 27.7545C166.461 28.7916 167.744 29.3116 169.273 29.3116C170.79 29.3116 172.084 28.7916 173.127 27.7545C174.179 26.7174 174.713 25.3856 174.713 23.7707C174.713 22.1558 174.179 20.8241 173.127 19.7869C172.084 18.7498 170.79 18.2298 169.273 18.2298C167.744 18.2298 166.461 18.7498 165.406 19.7869C164.354 20.8241 163.821 22.1558 163.821 23.7707C163.821 25.3856 164.354 26.7174 165.406 27.7545V27.7545Z" fill="white" stroke="white" stroke-width="0.16" stroke-miterlimit="10"/>
<path d="M179.145 30.6979V16.8428H181.367L188.276 27.6183H188.356L188.276 24.9548V16.8428H190.105V30.6979H188.196L180.961 19.3908H180.881L180.961 22.0659V30.6979H179.145V30.6979Z" fill="white" stroke="white" stroke-width="0.16" stroke-miterlimit="10"/>
<path d="M161.504 50.9316C155.937 50.9316 151.389 55.0627 151.389 60.7625C151.389 66.416 155.937 70.5905 161.504 70.5905C167.084 70.5905 171.632 66.416 171.632 60.7625C171.632 55.0627 167.084 50.9316 161.504 50.9316ZM161.504 66.7193C158.45 66.7193 155.821 64.2609 155.821 60.7625C155.821 57.2178 158.45 54.8027 161.504 54.8027C164.559 54.8027 167.199 57.2178 167.199 60.7625C167.199 64.2609 164.559 66.7193 161.504 66.7193V66.7193ZM139.433 50.9316C133.854 50.9316 129.318 55.0627 129.318 60.7625C129.318 66.416 133.854 70.5905 139.433 70.5905C145.01 70.5905 149.549 66.416 149.549 60.7625C149.549 55.0627 145.01 50.9316 139.433 50.9316ZM139.433 66.7193C136.376 66.7193 133.739 64.2609 133.739 60.7625C133.739 57.2178 136.376 54.8027 139.433 54.8027C142.488 54.8027 145.116 57.2178 145.116 60.7625C145.116 64.2609 142.488 66.7193 139.433 66.7193ZM113.17 53.9447V58.122H123.401C123.102 60.4562 122.302 62.1722 121.075 63.3682C119.582 64.8127 117.256 66.416 113.17 66.416C106.873 66.416 101.943 61.4616 101.943 55.3227C101.943 49.1838 106.873 44.2293 113.17 44.2293C116.574 44.2293 119.051 45.5265 120.879 47.2078L123.899 44.264C121.342 41.8836 117.94 40.0549 113.17 40.0549C104.536 40.0549 97.2793 46.9045 97.2793 55.3227C97.2793 63.7409 104.536 70.5905 113.17 70.5905C117.836 70.5905 121.342 69.0998 124.097 66.3033C126.921 63.5502 127.801 59.6791 127.801 56.5533C127.801 55.5827 127.718 54.69 127.57 53.9447H113.17ZM220.565 57.1831C219.733 54.9847 217.164 50.9316 211.931 50.9316C206.746 50.9316 202.429 54.9153 202.429 60.7625C202.429 66.2687 206.701 70.5905 212.429 70.5905C217.06 70.5905 219.733 67.8373 220.832 66.234L217.395 64.0009C216.248 65.636 214.687 66.7193 212.429 66.7193C210.186 66.7193 208.577 65.7169 207.546 63.7409L221.03 58.3011L220.565 57.1831V57.1831ZM206.817 60.4562C206.701 56.666 209.836 54.7247 212.082 54.7247C213.842 54.7247 215.336 55.5827 215.833 56.8105L206.817 60.4562V60.4562ZM195.857 69.9925H200.29V41.1036H195.857V69.9925ZM188.598 53.1213H188.45C187.454 51.9716 185.555 50.9316 183.149 50.9316C178.1 50.9316 173.484 55.2533 173.484 60.7942C173.484 66.3033 178.1 70.5905 183.149 70.5905C185.555 70.5905 187.454 69.5418 188.45 68.3573H188.598V69.7671C188.598 73.5256 186.539 75.5449 183.217 75.5449C180.509 75.5449 178.829 73.6382 178.136 72.0349L174.281 73.6036C175.392 76.2093 178.334 79.416 183.217 79.416C188.414 79.416 192.799 76.4347 192.799 69.1807V51.5296H188.598V53.1213V53.1213ZM183.528 66.7193C180.473 66.7193 177.916 64.2262 177.916 60.7942C177.916 57.3305 180.473 54.8027 183.528 54.8027C186.539 54.8027 188.912 57.3305 188.912 60.7942C188.912 64.2262 186.539 66.7193 183.528 66.7193V66.7193ZM241.318 41.1036H230.716V69.9925H235.137V59.0465H241.318C246.227 59.0465 251.042 55.5827 251.042 50.0736C251.042 44.5673 246.216 41.1036 241.318 41.1036V41.1036ZM241.433 55.028H235.137V45.122H241.433C244.734 45.122 246.618 47.7942 246.618 50.0736C246.618 52.3096 244.734 55.028 241.433 55.028ZM268.761 50.8767C265.567 50.8767 262.245 52.2518 260.879 55.2996L264.802 56.9029C265.647 55.2996 267.199 54.7796 268.841 54.7796C271.134 54.7796 273.46 56.1229 273.496 58.4947V58.798C272.696 58.3473 270.983 57.68 268.876 57.68C264.651 57.68 260.346 59.9478 260.346 64.18C260.346 68.0511 263.807 70.5442 267.697 70.5442C270.672 70.5442 272.313 69.2356 273.344 67.7131H273.496V69.9462H277.765V58.8645C277.765 53.7425 273.842 50.8767 268.761 50.8767ZM268.227 66.7078C266.781 66.7078 264.767 66.0087 264.767 64.2609C264.767 62.0249 267.279 61.1669 269.454 61.1669C271.401 61.1669 272.313 61.5858 273.496 62.1376C273.149 64.8127 270.787 66.7078 268.227 66.7078V66.7078ZM293.321 51.5093L288.239 64.0327H288.088L282.835 51.5093H278.067L285.961 69.0102L281.457 78.7487H286.076L298.239 51.5093H293.321V51.5093ZM253.472 69.9925H257.904V41.1036H253.472V69.9925Z" fill="white"/>
<defs>
<linearGradient id="paint0_linear_56688_210766" x1="51.6726" y1="72.9749" x2="12.899" y2="33.2071" gradientUnits="userSpaceOnUse">
<stop stop-color="#00A0FF"/>
<stop offset="0.0066" stop-color="#00A1FF"/>
<stop offset="0.2601" stop-color="#00BEFF"/>
<stop offset="0.5122" stop-color="#00D2FF"/>
<stop offset="0.7604" stop-color="#00DFFF"/>
<stop offset="1" stop-color="#00E3FF"/>
</linearGradient>
<linearGradient id="paint1_linear_56688_210766" x1="80.1998" y1="46.8786" x2="22.8442" y2="46.8786" gradientUnits="userSpaceOnUse">
<stop stop-color="#FFE000"/>
<stop offset="0.4087" stop-color="#FFBD00"/>
<stop offset="0.7754" stop-color="#FFA500"/>
<stop offset="1" stop-color="#FF9C00"/>
</linearGradient>
<linearGradient id="paint2_linear_56688_210766" x1="58.8487" y1="41.575" x2="6.26862" y2="-12.3533" gradientUnits="userSpaceOnUse">
<stop stop-color="#FF3A44"/>
<stop offset="1" stop-color="#C31162"/>
</linearGradient>
<linearGradient id="paint3_linear_56688_210766" x1="17.2969" y1="92.6969" x2="40.7762" y2="68.6157" gradientUnits="userSpaceOnUse">
<stop stop-color="#32A071"/>
<stop offset="0.0685" stop-color="#2DA771"/>
<stop offset="0.4762" stop-color="#15CF74"/>
<stop offset="0.8009" stop-color="#06E775"/>
<stop offset="1" stop-color="#00F076"/>
</linearGradient>
</defs>
</svg>
